<svg width="80" height="80" viewBox="0 0 80 80" xmlns="http://www.w3.org/2000/svg">
  <defs>
    <style>
      .qr-bg { fill: #ffffff; }
      .qr-fg { fill: #5865F2; }
    </style>
  </defs>
  
  <!-- Background -->
  <rect width="80" height="80" class="qr-bg"/>
  
  <!-- QR Code pattern for Discord -->
  <!-- Corner markers -->
  <rect x="4" y="4" width="20" height="20" class="qr-fg"/>
  <rect x="8" y="8" width="12" height="12" class="qr-bg"/>
  <rect x="12" y="12" width="4" height="4" class="qr-fg"/>
  
  <rect x="56" y="4" width="20" height="20" class="qr-fg"/>
  <rect x="60" y="8" width="12" height="12" class="qr-bg"/>
  <rect x="64" y="12" width="4" height="4" class="qr-fg"/>
  
  <rect x="4" y="56" width="20" height="20" class="qr-fg"/>
  <rect x="8" y="60" width="12" height="12" class="qr-bg"/>
  <rect x="12" y="64" width="4" height="4" class="qr-fg"/>
  
  <!-- Data pattern (different from WhatsApp) -->
  <rect x="28" y="8" width="4" height="4" class="qr-fg"/>
  <rect x="36" y="8" width="4" height="4" class="qr-fg"/>
  <rect x="44" y="8" width="4" height="4" class="qr-fg"/>
  <rect x="52" y="8" width="4" height="4" class="qr-fg"/>
  
  <rect x="8" y="28" width="4" height="4" class="qr-fg"/>
  <rect x="16" y="28" width="4" height="4" class="qr-fg"/>
  <rect x="32" y="28" width="4" height="4" class="qr-fg"/>
  <rect x="40" y="28" width="4" height="4" class="qr-fg"/>
  <rect x="48" y="28" width="4" height="4" class="qr-fg"/>
  <rect x="56" y="28" width="4" height="4" class="qr-fg"/>
  <rect x="64" y="28" width="4" height="4" class="qr-fg"/>
  <rect x="72" y="28" width="4" height="4" class="qr-fg"/>
  
  <rect x="28" y="36" width="4" height="4" class="qr-fg"/>
  <rect x="36" y="36" width="4" height="4" class="qr-fg"/>
  <rect x="52" y="36" width="4" height="4" class="qr-fg"/>
  
  <rect x="32" y="44" width="4" height="4" class="qr-fg"/>
  <rect x="40" y="44" width="4" height="4" class="qr-fg"/>
  <rect x="48" y="44" width="4" height="4" class="qr-fg"/>
  <rect x="56" y="44" width="4" height="4" class="qr-fg"/>
  <rect x="64" y="44" width="4" height="4" class="qr-fg"/>
  
  <rect x="28" y="52" width="4" height="4" class="qr-fg"/>
  <rect x="36" y="52" width="4" height="4" class="qr-fg"/>
  <rect x="44" y="52" width="4" height="4" class="qr-fg"/>
  <rect x="68" y="52" width="4" height="4" class="qr-fg"/>
  <rect x="72" y="52" width="4" height="4" class="qr-fg"/>
  
  <rect x="28" y="64" width="4" height="4" class="qr-fg"/>
  <rect x="32" y="72" width="4" height="4" class="qr-fg"/>
  <rect x="44" y="72" width="4" height="4" class="qr-fg"/>
  <rect x="52" y="72" width="4" height="4" class="qr-fg"/>
  <rect x="60" y="72" width="4" height="4" class="qr-fg"/>
  <rect x="72" y="72" width="4" height="4" class="qr-fg"/>
  
  <!-- Discord icon overlay in center -->
  <circle cx="40" cy="40" r="8" fill="#5865F2"/>
  <path d="M34,37 Q34,35 36,35 L44,35 Q46,35 46,37 L46,43 Q46,45 44,45 L36,45 Q34,45 34,43 Z" fill="white"/>
  <circle cx="37.5" cy="39" r="1.5" fill="#5865F2"/>
  <circle cx="42.5" cy="39" r="1.5" fill="#5865F2"/>
  <rect x="36" y="42" width="8" height="2" rx="1" fill="#5865F2"/>
</svg>